<mxfile host="app.diagrams.net" agent="Mozilla/5.0 (Macintosh; Intel Mac OS X 10_15_7) AppleWebKit/537.36 (KHTML, like Gecko) Chrome/128.0.0.0 Safari/537.36" version="24.7.10">
  <diagram name="Page-1" id="_0m-XD5S-_cqoOD3H0MD">
    <mxGraphModel dx="2074" dy="1145" grid="1" gridSize="10" guides="1" tooltips="1" connect="1" arrows="1" fold="1" page="1" pageScale="1" pageWidth="827" pageHeight="1169" math="0" shadow="0">
      <root>
        <mxCell id="0" />
        <mxCell id="1" parent="0" />
        <mxCell id="GAYBsDSeub3QhpSArbj6-2" value="Requirements:&lt;br&gt;Users:&lt;br&gt;&lt;b&gt;Authenticated Client&lt;/b&gt;&lt;br&gt;Primary Functionality:&lt;br&gt;&lt;br&gt;&lt;div&gt;1) Multiple nodes&lt;/div&gt;&lt;div&gt;2) File storage/modification/deletion&lt;/div&gt;&lt;div&gt;3) see all files&lt;/div&gt;&lt;div&gt;4) zipping the file&amp;nbsp;&amp;nbsp;&lt;/div&gt;&lt;div&gt;Secondary Functionality:&lt;br&gt;&lt;br&gt;&lt;/div&gt;&lt;div&gt;1) Permission (add/delete/modify)&lt;/div&gt;" style="rounded=0;whiteSpace=wrap;html=1;" parent="1" vertex="1">
          <mxGeometry x="60" y="170" width="280" height="240" as="geometry" />
        </mxCell>
        <mxCell id="GAYBsDSeub3QhpSArbj6-4" value="Client&amp;nbsp;" style="html=1;whiteSpace=wrap;" parent="1" vertex="1">
          <mxGeometry x="145" y="480" width="110" height="50" as="geometry" />
        </mxCell>
        <mxCell id="GAYBsDSeub3QhpSArbj6-5" value="DfsServer" style="swimlane;fontStyle=1;align=center;verticalAlign=top;childLayout=stackLayout;horizontal=1;startSize=26;horizontalStack=0;resizeParent=1;resizeParentMax=0;resizeLast=0;collapsible=1;marginBottom=0;whiteSpace=wrap;html=1;" parent="1" vertex="1">
          <mxGeometry x="720" y="340" width="180" height="138" as="geometry" />
        </mxCell>
        <mxCell id="GAYBsDSeub3QhpSArbj6-6" value="+ List&amp;lt;Servers&amp;gt; servers;&lt;div&gt;+ServerSelectionStrategy&lt;/div&gt;" style="text;strokeColor=none;fillColor=none;align=left;verticalAlign=top;spacingLeft=4;spacingRight=4;overflow=hidden;rotatable=0;points=[[0,0.5],[1,0.5]];portConstraint=eastwest;whiteSpace=wrap;html=1;" parent="GAYBsDSeub3QhpSArbj6-5" vertex="1">
          <mxGeometry y="26" width="180" height="44" as="geometry" />
        </mxCell>
        <mxCell id="GAYBsDSeub3QhpSArbj6-7" value="" style="line;strokeWidth=1;fillColor=none;align=left;verticalAlign=middle;spacingTop=-1;spacingLeft=3;spacingRight=3;rotatable=0;labelPosition=right;points=[];portConstraint=eastwest;strokeColor=inherit;" parent="GAYBsDSeub3QhpSArbj6-5" vertex="1">
          <mxGeometry y="70" width="180" height="8" as="geometry" />
        </mxCell>
        <mxCell id="GAYBsDSeub3QhpSArbj6-8" value="+addFile(FileRequest): boolean" style="text;strokeColor=none;fillColor=none;align=left;verticalAlign=top;spacingLeft=4;spacingRight=4;overflow=hidden;rotatable=0;points=[[0,0.5],[1,0.5]];portConstraint=eastwest;whiteSpace=wrap;html=1;" parent="GAYBsDSeub3QhpSArbj6-5" vertex="1">
          <mxGeometry y="78" width="180" height="60" as="geometry" />
        </mxCell>
        <mxCell id="GAYBsDSeub3QhpSArbj6-9" value="BaseFile" style="swimlane;fontStyle=1;align=center;verticalAlign=top;childLayout=stackLayout;horizontal=1;startSize=26;horizontalStack=0;resizeParent=1;resizeParentMax=0;resizeLast=0;collapsible=1;marginBottom=0;whiteSpace=wrap;html=1;" parent="1" vertex="1">
          <mxGeometry x="60" y="730" width="160" height="128" as="geometry" />
        </mxCell>
        <mxCell id="GAYBsDSeub3QhpSArbj6-10" value="+ filename: String&lt;br&gt;+uniqueId:uuid&lt;div&gt;+ data:byte[]&lt;/div&gt;&lt;div&gt;+ meta; FileMeta&amp;nbsp;&lt;/div&gt;&lt;div&gt;&lt;br&gt;&lt;/div&gt;" style="text;strokeColor=none;fillColor=none;align=left;verticalAlign=top;spacingLeft=4;spacingRight=4;overflow=hidden;rotatable=0;points=[[0,0.5],[1,0.5]];portConstraint=eastwest;whiteSpace=wrap;html=1;" parent="GAYBsDSeub3QhpSArbj6-9" vertex="1">
          <mxGeometry y="26" width="160" height="44" as="geometry" />
        </mxCell>
        <mxCell id="GAYBsDSeub3QhpSArbj6-11" value="" style="line;strokeWidth=1;fillColor=none;align=left;verticalAlign=middle;spacingTop=-1;spacingLeft=3;spacingRight=3;rotatable=0;labelPosition=right;points=[];portConstraint=eastwest;strokeColor=inherit;" parent="GAYBsDSeub3QhpSArbj6-9" vertex="1">
          <mxGeometry y="70" width="160" height="8" as="geometry" />
        </mxCell>
        <mxCell id="GAYBsDSeub3QhpSArbj6-12" value="+getData(): byte[]" style="text;strokeColor=none;fillColor=none;align=left;verticalAlign=top;spacingLeft=4;spacingRight=4;overflow=hidden;rotatable=0;points=[[0,0.5],[1,0.5]];portConstraint=eastwest;whiteSpace=wrap;html=1;" parent="GAYBsDSeub3QhpSArbj6-9" vertex="1">
          <mxGeometry y="78" width="160" height="50" as="geometry" />
        </mxCell>
        <mxCell id="GAYBsDSeub3QhpSArbj6-13" value="&amp;lt;&amp;lt;File&amp;gt;&amp;gt;" style="swimlane;fontStyle=1;align=center;verticalAlign=top;childLayout=stackLayout;horizontal=1;startSize=26;horizontalStack=0;resizeParent=1;resizeParentMax=0;resizeLast=0;collapsible=1;marginBottom=0;whiteSpace=wrap;html=1;" parent="1" vertex="1">
          <mxGeometry x="150" y="560" width="160" height="80" as="geometry" />
        </mxCell>
        <mxCell id="GAYBsDSeub3QhpSArbj6-15" value="" style="line;strokeWidth=1;fillColor=none;align=left;verticalAlign=middle;spacingTop=-1;spacingLeft=3;spacingRight=3;rotatable=0;labelPosition=right;points=[];portConstraint=eastwest;strokeColor=inherit;" parent="GAYBsDSeub3QhpSArbj6-13" vertex="1">
          <mxGeometry y="26" width="160" height="8" as="geometry" />
        </mxCell>
        <mxCell id="GAYBsDSeub3QhpSArbj6-16" value="+getLocation(type): type&lt;br&gt;+getFileType: FIleType" style="text;strokeColor=none;fillColor=none;align=left;verticalAlign=top;spacingLeft=4;spacingRight=4;overflow=hidden;rotatable=0;points=[[0,0.5],[1,0.5]];portConstraint=eastwest;whiteSpace=wrap;html=1;" parent="GAYBsDSeub3QhpSArbj6-13" vertex="1">
          <mxGeometry y="34" width="160" height="46" as="geometry" />
        </mxCell>
        <mxCell id="GAYBsDSeub3QhpSArbj6-18" value="Folder" style="swimlane;fontStyle=1;align=center;verticalAlign=top;childLayout=stackLayout;horizontal=1;startSize=26;horizontalStack=0;resizeParent=1;resizeParentMax=0;resizeLast=0;collapsible=1;marginBottom=0;whiteSpace=wrap;html=1;" parent="1" vertex="1">
          <mxGeometry x="280" y="710" width="160" height="170" as="geometry" />
        </mxCell>
        <mxCell id="GAYBsDSeub3QhpSArbj6-19" value="+ uniqueId: type&lt;div&gt;+ List&amp;lt;File&amp;gt; file;&lt;/div&gt;&lt;div&gt;+&lt;span style=&quot;background-color: initial;&quot;&gt;&amp;nbsp;meta; FileMeta&amp;nbsp;&lt;/span&gt;&lt;/div&gt;&lt;div&gt;&lt;span style=&quot;background-color: initial;&quot;&gt;&amp;nbsp;&lt;/span&gt;&lt;/div&gt;" style="text;strokeColor=none;fillColor=none;align=left;verticalAlign=top;spacingLeft=4;spacingRight=4;overflow=hidden;rotatable=0;points=[[0,0.5],[1,0.5]];portConstraint=eastwest;whiteSpace=wrap;html=1;" parent="GAYBsDSeub3QhpSArbj6-18" vertex="1">
          <mxGeometry y="26" width="160" height="64" as="geometry" />
        </mxCell>
        <mxCell id="GAYBsDSeub3QhpSArbj6-20" value="" style="line;strokeWidth=1;fillColor=none;align=left;verticalAlign=middle;spacingTop=-1;spacingLeft=3;spacingRight=3;rotatable=0;labelPosition=right;points=[];portConstraint=eastwest;strokeColor=inherit;" parent="GAYBsDSeub3QhpSArbj6-18" vertex="1">
          <mxGeometry y="90" width="160" height="8" as="geometry" />
        </mxCell>
        <mxCell id="GAYBsDSeub3QhpSArbj6-21" value="+getAllFolders(): List&amp;lt;File&amp;gt;" style="text;strokeColor=none;fillColor=none;align=left;verticalAlign=top;spacingLeft=4;spacingRight=4;overflow=hidden;rotatable=0;points=[[0,0.5],[1,0.5]];portConstraint=eastwest;whiteSpace=wrap;html=1;" parent="GAYBsDSeub3QhpSArbj6-18" vertex="1">
          <mxGeometry y="98" width="160" height="72" as="geometry" />
        </mxCell>
        <mxCell id="GAYBsDSeub3QhpSArbj6-22" value="File Metadata" style="swimlane;fontStyle=1;align=center;verticalAlign=top;childLayout=stackLayout;horizontal=1;startSize=26;horizontalStack=0;resizeParent=1;resizeParentMax=0;resizeLast=0;collapsible=1;marginBottom=0;whiteSpace=wrap;html=1;" parent="1" vertex="1">
          <mxGeometry x="190" y="1030" width="160" height="168" as="geometry" />
        </mxCell>
        <mxCell id="GAYBsDSeub3QhpSArbj6-23" value="+ type: type&lt;div&gt;+ List&amp;lt;Permission&amp;gt;&amp;nbsp; permissions&lt;br&gt;+ type: FileType&lt;br&gt;&lt;/div&gt;" style="text;strokeColor=none;fillColor=none;align=left;verticalAlign=top;spacingLeft=4;spacingRight=4;overflow=hidden;rotatable=0;points=[[0,0.5],[1,0.5]];portConstraint=eastwest;whiteSpace=wrap;html=1;" parent="GAYBsDSeub3QhpSArbj6-22" vertex="1">
          <mxGeometry y="26" width="160" height="84" as="geometry" />
        </mxCell>
        <mxCell id="GAYBsDSeub3QhpSArbj6-24" value="" style="line;strokeWidth=1;fillColor=none;align=left;verticalAlign=middle;spacingTop=-1;spacingLeft=3;spacingRight=3;rotatable=0;labelPosition=right;points=[];portConstraint=eastwest;strokeColor=inherit;" parent="GAYBsDSeub3QhpSArbj6-22" vertex="1">
          <mxGeometry y="110" width="160" height="8" as="geometry" />
        </mxCell>
        <mxCell id="GAYBsDSeub3QhpSArbj6-25" value="+ method(type): type" style="text;strokeColor=none;fillColor=none;align=left;verticalAlign=top;spacingLeft=4;spacingRight=4;overflow=hidden;rotatable=0;points=[[0,0.5],[1,0.5]];portConstraint=eastwest;whiteSpace=wrap;html=1;" parent="GAYBsDSeub3QhpSArbj6-22" vertex="1">
          <mxGeometry y="118" width="160" height="50" as="geometry" />
        </mxCell>
        <mxCell id="GAYBsDSeub3QhpSArbj6-29" value="" style="endArrow=block;dashed=1;endFill=0;endSize=12;html=1;rounded=0;entryX=0.718;entryY=0.971;entryDx=0;entryDy=0;entryPerimeter=0;exitX=0.594;exitY=0;exitDx=0;exitDy=0;exitPerimeter=0;" parent="1" source="GAYBsDSeub3QhpSArbj6-9" target="GAYBsDSeub3QhpSArbj6-16" edge="1">
          <mxGeometry width="160" relative="1" as="geometry">
            <mxPoint x="330" y="810" as="sourcePoint" />
            <mxPoint x="490" y="810" as="targetPoint" />
          </mxGeometry>
        </mxCell>
        <mxCell id="GAYBsDSeub3QhpSArbj6-30" value="" style="endArrow=block;dashed=1;endFill=0;endSize=12;html=1;rounded=0;entryX=0.786;entryY=1.026;entryDx=0;entryDy=0;entryPerimeter=0;exitX=0.25;exitY=0;exitDx=0;exitDy=0;" parent="1" source="GAYBsDSeub3QhpSArbj6-18" target="GAYBsDSeub3QhpSArbj6-16" edge="1">
          <mxGeometry width="160" relative="1" as="geometry">
            <mxPoint x="200" y="730" as="sourcePoint" />
            <mxPoint x="255" y="659" as="targetPoint" />
          </mxGeometry>
        </mxCell>
        <mxCell id="GAYBsDSeub3QhpSArbj6-31" value="1" style="endArrow=open;html=1;endSize=12;startArrow=diamondThin;startSize=14;startFill=1;edgeStyle=orthogonalEdgeStyle;align=left;verticalAlign=bottom;rounded=0;entryX=0.563;entryY=0;entryDx=0;entryDy=0;entryPerimeter=0;exitX=0.5;exitY=1;exitDx=0;exitDy=0;" parent="1" source="GAYBsDSeub3QhpSArbj6-9" target="GAYBsDSeub3QhpSArbj6-22" edge="1">
          <mxGeometry x="-1" y="3" relative="1" as="geometry">
            <mxPoint x="330" y="800" as="sourcePoint" />
            <mxPoint x="490" y="800" as="targetPoint" />
          </mxGeometry>
        </mxCell>
        <mxCell id="GAYBsDSeub3QhpSArbj6-32" value="1" style="endArrow=open;html=1;endSize=12;startArrow=diamondThin;startSize=14;startFill=1;edgeStyle=orthogonalEdgeStyle;align=left;verticalAlign=bottom;rounded=0;entryX=0.783;entryY=-0.027;entryDx=0;entryDy=0;entryPerimeter=0;exitX=0.414;exitY=1.042;exitDx=0;exitDy=0;exitPerimeter=0;" parent="1" source="GAYBsDSeub3QhpSArbj6-21" target="GAYBsDSeub3QhpSArbj6-22" edge="1">
          <mxGeometry x="-1" y="3" relative="1" as="geometry">
            <mxPoint x="340" y="910" as="sourcePoint" />
            <mxPoint x="460" y="1012" as="targetPoint" />
            <Array as="points">
              <mxPoint x="346" y="911" />
              <mxPoint x="461" y="911" />
              <mxPoint x="461" y="950" />
              <mxPoint x="460" y="950" />
              <mxPoint x="460" y="957" />
            </Array>
          </mxGeometry>
        </mxCell>
        <mxCell id="GAYBsDSeub3QhpSArbj6-33" style="edgeStyle=orthogonalEdgeStyle;rounded=0;orthogonalLoop=1;jettySize=auto;html=1;entryX=0.168;entryY=1.019;entryDx=0;entryDy=0;entryPerimeter=0;" parent="1" source="GAYBsDSeub3QhpSArbj6-4" target="GAYBsDSeub3QhpSArbj6-64" edge="1">
          <mxGeometry relative="1" as="geometry" />
        </mxCell>
        <mxCell id="GAYBsDSeub3QhpSArbj6-34" value="&amp;lt;&amp;lt;enum&amp;gt;&amp;gt;&lt;br&gt;&lt;br&gt;FOLDER,FILE" style="whiteSpace=wrap;html=1;" parent="1" vertex="1">
          <mxGeometry x="470" y="1010" width="120" height="60" as="geometry" />
        </mxCell>
        <mxCell id="GAYBsDSeub3QhpSArbj6-36" value="1" style="endArrow=open;html=1;endSize=12;startArrow=diamondThin;startSize=14;startFill=0;edgeStyle=orthogonalEdgeStyle;align=left;verticalAlign=bottom;rounded=0;exitX=1.01;exitY=0.211;exitDx=0;exitDy=0;exitPerimeter=0;entryX=0.583;entryY=0;entryDx=0;entryDy=0;entryPerimeter=0;" parent="1" source="GAYBsDSeub3QhpSArbj6-13" target="GAYBsDSeub3QhpSArbj6-34" edge="1">
          <mxGeometry x="-1" y="3" relative="1" as="geometry">
            <mxPoint x="520" y="900" as="sourcePoint" />
            <mxPoint x="680" y="900" as="targetPoint" />
          </mxGeometry>
        </mxCell>
        <mxCell id="GAYBsDSeub3QhpSArbj6-37" value="Server" style="swimlane;fontStyle=1;align=center;verticalAlign=top;childLayout=stackLayout;horizontal=1;startSize=26;horizontalStack=0;resizeParent=1;resizeParentMax=0;resizeLast=0;collapsible=1;marginBottom=0;whiteSpace=wrap;html=1;" parent="1" vertex="1">
          <mxGeometry x="1000" y="570" width="200" height="148" as="geometry" />
        </mxCell>
        <mxCell id="GAYBsDSeub3QhpSArbj6-38" value="+ id:int&lt;br&gt;+ Map&amp;lt;User id, File&amp;gt;&lt;br&gt;+ serverMetaData: ServerMetaData" style="text;strokeColor=none;fillColor=none;align=left;verticalAlign=top;spacingLeft=4;spacingRight=4;overflow=hidden;rotatable=0;points=[[0,0.5],[1,0.5]];portConstraint=eastwest;whiteSpace=wrap;html=1;" parent="GAYBsDSeub3QhpSArbj6-37" vertex="1">
          <mxGeometry y="26" width="200" height="64" as="geometry" />
        </mxCell>
        <mxCell id="GAYBsDSeub3QhpSArbj6-39" value="" style="line;strokeWidth=1;fillColor=none;align=left;verticalAlign=middle;spacingTop=-1;spacingLeft=3;spacingRight=3;rotatable=0;labelPosition=right;points=[];portConstraint=eastwest;strokeColor=inherit;" parent="GAYBsDSeub3QhpSArbj6-37" vertex="1">
          <mxGeometry y="90" width="200" height="8" as="geometry" />
        </mxCell>
        <mxCell id="GAYBsDSeub3QhpSArbj6-40" value="+ getFile(int ,uuid ): File&lt;div&gt;+getFiles(int): List&amp;lt;Files&amp;gt;&lt;/div&gt;&lt;div&gt;+saveFile(FileRequest): boolean&lt;/div&gt;" style="text;strokeColor=none;fillColor=none;align=left;verticalAlign=top;spacingLeft=4;spacingRight=4;overflow=hidden;rotatable=0;points=[[0,0.5],[1,0.5]];portConstraint=eastwest;whiteSpace=wrap;html=1;" parent="GAYBsDSeub3QhpSArbj6-37" vertex="1">
          <mxGeometry y="98" width="200" height="50" as="geometry" />
        </mxCell>
        <mxCell id="GAYBsDSeub3QhpSArbj6-49" value="ServerMetaData" style="swimlane;fontStyle=1;align=center;verticalAlign=top;childLayout=stackLayout;horizontal=1;startSize=26;horizontalStack=0;resizeParent=1;resizeParentMax=0;resizeLast=0;collapsible=1;marginBottom=0;whiteSpace=wrap;html=1;" parent="1" vertex="1">
          <mxGeometry x="780" y="780" width="160" height="104" as="geometry" />
        </mxCell>
        <mxCell id="GAYBsDSeub3QhpSArbj6-50" value="+ storage: double&lt;div&gt;+remaining: storage&lt;/div&gt;" style="text;strokeColor=none;fillColor=none;align=left;verticalAlign=top;spacingLeft=4;spacingRight=4;overflow=hidden;rotatable=0;points=[[0,0.5],[1,0.5]];portConstraint=eastwest;whiteSpace=wrap;html=1;" parent="GAYBsDSeub3QhpSArbj6-49" vertex="1">
          <mxGeometry y="26" width="160" height="44" as="geometry" />
        </mxCell>
        <mxCell id="GAYBsDSeub3QhpSArbj6-51" value="" style="line;strokeWidth=1;fillColor=none;align=left;verticalAlign=middle;spacingTop=-1;spacingLeft=3;spacingRight=3;rotatable=0;labelPosition=right;points=[];portConstraint=eastwest;strokeColor=inherit;" parent="GAYBsDSeub3QhpSArbj6-49" vertex="1">
          <mxGeometry y="70" width="160" height="8" as="geometry" />
        </mxCell>
        <mxCell id="GAYBsDSeub3QhpSArbj6-52" value="+ method(type): type" style="text;strokeColor=none;fillColor=none;align=left;verticalAlign=top;spacingLeft=4;spacingRight=4;overflow=hidden;rotatable=0;points=[[0,0.5],[1,0.5]];portConstraint=eastwest;whiteSpace=wrap;html=1;" parent="GAYBsDSeub3QhpSArbj6-49" vertex="1">
          <mxGeometry y="78" width="160" height="26" as="geometry" />
        </mxCell>
        <mxCell id="GAYBsDSeub3QhpSArbj6-53" value="User" style="swimlane;fontStyle=1;align=center;verticalAlign=top;childLayout=stackLayout;horizontal=1;startSize=26;horizontalStack=0;resizeParent=1;resizeParentMax=0;resizeLast=0;collapsible=1;marginBottom=0;whiteSpace=wrap;html=1;" parent="1" vertex="1">
          <mxGeometry x="420" y="150" width="160" height="78" as="geometry" />
        </mxCell>
        <mxCell id="GAYBsDSeub3QhpSArbj6-54" value="+ id:&amp;nbsp; int&amp;nbsp;&lt;div&gt;+ name: String&lt;/div&gt;" style="text;strokeColor=none;fillColor=none;align=left;verticalAlign=top;spacingLeft=4;spacingRight=4;overflow=hidden;rotatable=0;points=[[0,0.5],[1,0.5]];portConstraint=eastwest;whiteSpace=wrap;html=1;" parent="GAYBsDSeub3QhpSArbj6-53" vertex="1">
          <mxGeometry y="26" width="160" height="44" as="geometry" />
        </mxCell>
        <mxCell id="GAYBsDSeub3QhpSArbj6-55" value="" style="line;strokeWidth=1;fillColor=none;align=left;verticalAlign=middle;spacingTop=-1;spacingLeft=3;spacingRight=3;rotatable=0;labelPosition=right;points=[];portConstraint=eastwest;strokeColor=inherit;" parent="GAYBsDSeub3QhpSArbj6-53" vertex="1">
          <mxGeometry y="70" width="160" height="8" as="geometry" />
        </mxCell>
        <mxCell id="GAYBsDSeub3QhpSArbj6-57" value="FileRequest" style="swimlane;fontStyle=1;align=center;verticalAlign=top;childLayout=stackLayout;horizontal=1;startSize=26;horizontalStack=0;resizeParent=1;resizeParentMax=0;resizeLast=0;collapsible=1;marginBottom=0;whiteSpace=wrap;html=1;" parent="1" vertex="1">
          <mxGeometry x="690" y="140" width="160" height="118" as="geometry" />
        </mxCell>
        <mxCell id="GAYBsDSeub3QhpSArbj6-58" value="+ id: int&lt;div&gt;+ name: String&lt;/div&gt;&lt;div&gt;+ size; double&lt;br&gt;+ data: byte[]&lt;/div&gt;" style="text;strokeColor=none;fillColor=none;align=left;verticalAlign=top;spacingLeft=4;spacingRight=4;overflow=hidden;rotatable=0;points=[[0,0.5],[1,0.5]];portConstraint=eastwest;whiteSpace=wrap;html=1;" parent="GAYBsDSeub3QhpSArbj6-57" vertex="1">
          <mxGeometry y="26" width="160" height="84" as="geometry" />
        </mxCell>
        <mxCell id="GAYBsDSeub3QhpSArbj6-59" value="" style="line;strokeWidth=1;fillColor=none;align=left;verticalAlign=middle;spacingTop=-1;spacingLeft=3;spacingRight=3;rotatable=0;labelPosition=right;points=[];portConstraint=eastwest;strokeColor=inherit;" parent="GAYBsDSeub3QhpSArbj6-57" vertex="1">
          <mxGeometry y="110" width="160" height="8" as="geometry" />
        </mxCell>
        <mxCell id="GAYBsDSeub3QhpSArbj6-61" value="Proxy" style="swimlane;fontStyle=1;align=center;verticalAlign=top;childLayout=stackLayout;horizontal=1;startSize=26;horizontalStack=0;resizeParent=1;resizeParentMax=0;resizeLast=0;collapsible=1;marginBottom=0;whiteSpace=wrap;html=1;" parent="1" vertex="1">
          <mxGeometry x="390" y="324" width="210" height="110" as="geometry" />
        </mxCell>
        <mxCell id="GAYBsDSeub3QhpSArbj6-62" value="- DfsServer" style="text;strokeColor=none;fillColor=none;align=left;verticalAlign=top;spacingLeft=4;spacingRight=4;overflow=hidden;rotatable=0;points=[[0,0.5],[1,0.5]];portConstraint=eastwest;whiteSpace=wrap;html=1;" parent="GAYBsDSeub3QhpSArbj6-61" vertex="1">
          <mxGeometry y="26" width="210" height="26" as="geometry" />
        </mxCell>
        <mxCell id="GAYBsDSeub3QhpSArbj6-63" value="" style="line;strokeWidth=1;fillColor=none;align=left;verticalAlign=middle;spacingTop=-1;spacingLeft=3;spacingRight=3;rotatable=0;labelPosition=right;points=[];portConstraint=eastwest;strokeColor=inherit;" parent="GAYBsDSeub3QhpSArbj6-61" vertex="1">
          <mxGeometry y="52" width="210" height="8" as="geometry" />
        </mxCell>
        <mxCell id="GAYBsDSeub3QhpSArbj6-64" value="+ addFile(id,name,size,data): boolean" style="text;strokeColor=none;fillColor=none;align=left;verticalAlign=top;spacingLeft=4;spacingRight=4;overflow=hidden;rotatable=0;points=[[0,0.5],[1,0.5]];portConstraint=eastwest;whiteSpace=wrap;html=1;" parent="GAYBsDSeub3QhpSArbj6-61" vertex="1">
          <mxGeometry y="60" width="210" height="50" as="geometry" />
        </mxCell>
        <mxCell id="GAYBsDSeub3QhpSArbj6-66" value="1" style="endArrow=open;html=1;endSize=12;startArrow=diamondThin;startSize=14;startFill=0;edgeStyle=orthogonalEdgeStyle;align=left;verticalAlign=bottom;rounded=0;entryX=-0.018;entryY=0.912;entryDx=0;entryDy=0;entryPerimeter=0;exitX=1.018;exitY=0.758;exitDx=0;exitDy=0;exitPerimeter=0;" parent="1" source="GAYBsDSeub3QhpSArbj6-62" target="GAYBsDSeub3QhpSArbj6-6" edge="1">
          <mxGeometry x="-1" y="3" relative="1" as="geometry">
            <mxPoint x="520" y="399.76" as="sourcePoint" />
            <mxPoint x="680" y="399.76" as="targetPoint" />
          </mxGeometry>
        </mxCell>
        <mxCell id="GAYBsDSeub3QhpSArbj6-67" value="&amp;lt;&amp;lt;ServerSelectionStrategy&amp;gt;&amp;gt;" style="swimlane;fontStyle=1;align=center;verticalAlign=top;childLayout=stackLayout;horizontal=1;startSize=26;horizontalStack=0;resizeParent=1;resizeParentMax=0;resizeLast=0;collapsible=1;marginBottom=0;whiteSpace=wrap;html=1;" parent="1" vertex="1">
          <mxGeometry x="640" y="570" width="220" height="60" as="geometry" />
        </mxCell>
        <mxCell id="GAYBsDSeub3QhpSArbj6-69" value="" style="line;strokeWidth=1;fillColor=none;align=left;verticalAlign=middle;spacingTop=-1;spacingLeft=3;spacingRight=3;rotatable=0;labelPosition=right;points=[];portConstraint=eastwest;strokeColor=inherit;" parent="GAYBsDSeub3QhpSArbj6-67" vertex="1">
          <mxGeometry y="26" width="220" height="8" as="geometry" />
        </mxCell>
        <mxCell id="GAYBsDSeub3QhpSArbj6-70" value="+getServers(): List&amp;lt;servers&amp;gt;" style="text;strokeColor=none;fillColor=none;align=left;verticalAlign=top;spacingLeft=4;spacingRight=4;overflow=hidden;rotatable=0;points=[[0,0.5],[1,0.5]];portConstraint=eastwest;whiteSpace=wrap;html=1;" parent="GAYBsDSeub3QhpSArbj6-67" vertex="1">
          <mxGeometry y="34" width="220" height="26" as="geometry" />
        </mxCell>
        <mxCell id="GAYBsDSeub3QhpSArbj6-75" value="1" style="endArrow=open;html=1;endSize=12;startArrow=diamondThin;startSize=14;startFill=0;edgeStyle=orthogonalEdgeStyle;align=left;verticalAlign=bottom;rounded=0;exitX=0.397;exitY=1.003;exitDx=0;exitDy=0;exitPerimeter=0;entryX=0.55;entryY=-0.059;entryDx=0;entryDy=0;entryPerimeter=0;" parent="1" source="GAYBsDSeub3QhpSArbj6-8" target="GAYBsDSeub3QhpSArbj6-67" edge="1">
          <mxGeometry x="-1" y="3" relative="1" as="geometry">
            <mxPoint x="650" y="570" as="sourcePoint" />
            <mxPoint x="810" y="570" as="targetPoint" />
          </mxGeometry>
        </mxCell>
        <mxCell id="GAYBsDSeub3QhpSArbj6-76" value="ServerManager" style="swimlane;fontStyle=1;align=center;verticalAlign=top;childLayout=stackLayout;horizontal=1;startSize=26;horizontalStack=0;resizeParent=1;resizeParentMax=0;resizeLast=0;collapsible=1;marginBottom=0;whiteSpace=wrap;html=1;" parent="1" vertex="1">
          <mxGeometry x="1050" y="394" width="160" height="86" as="geometry" />
        </mxCell>
        <mxCell id="GAYBsDSeub3QhpSArbj6-77" value="+ List&amp;lt;Server&amp;gt;: Server" style="text;strokeColor=none;fillColor=none;align=left;verticalAlign=top;spacingLeft=4;spacingRight=4;overflow=hidden;rotatable=0;points=[[0,0.5],[1,0.5]];portConstraint=eastwest;whiteSpace=wrap;html=1;" parent="GAYBsDSeub3QhpSArbj6-76" vertex="1">
          <mxGeometry y="26" width="160" height="26" as="geometry" />
        </mxCell>
        <mxCell id="GAYBsDSeub3QhpSArbj6-78" value="" style="line;strokeWidth=1;fillColor=none;align=left;verticalAlign=middle;spacingTop=-1;spacingLeft=3;spacingRight=3;rotatable=0;labelPosition=right;points=[];portConstraint=eastwest;strokeColor=inherit;" parent="GAYBsDSeub3QhpSArbj6-76" vertex="1">
          <mxGeometry y="52" width="160" height="8" as="geometry" />
        </mxCell>
        <mxCell id="GAYBsDSeub3QhpSArbj6-79" value="+ method(type): type" style="text;strokeColor=none;fillColor=none;align=left;verticalAlign=top;spacingLeft=4;spacingRight=4;overflow=hidden;rotatable=0;points=[[0,0.5],[1,0.5]];portConstraint=eastwest;whiteSpace=wrap;html=1;" parent="GAYBsDSeub3QhpSArbj6-76" vertex="1">
          <mxGeometry y="60" width="160" height="26" as="geometry" />
        </mxCell>
        <mxCell id="GAYBsDSeub3QhpSArbj6-80" value="1" style="endArrow=open;html=1;endSize=12;startArrow=diamondThin;startSize=14;startFill=0;edgeStyle=orthogonalEdgeStyle;align=left;verticalAlign=bottom;rounded=0;entryX=0.313;entryY=-0.012;entryDx=0;entryDy=0;entryPerimeter=0;exitX=-0.014;exitY=0.847;exitDx=0;exitDy=0;exitPerimeter=0;" parent="1" source="GAYBsDSeub3QhpSArbj6-38" target="GAYBsDSeub3QhpSArbj6-49" edge="1">
          <mxGeometry x="-1" y="3" relative="1" as="geometry">
            <mxPoint x="650" y="720" as="sourcePoint" />
            <mxPoint x="810" y="720" as="targetPoint" />
          </mxGeometry>
        </mxCell>
        <mxCell id="GAYBsDSeub3QhpSArbj6-81" value="1" style="endArrow=open;html=1;endSize=12;startArrow=diamondThin;startSize=14;startFill=0;edgeStyle=orthogonalEdgeStyle;align=left;verticalAlign=bottom;rounded=0;exitX=0.004;exitY=0.19;exitDx=0;exitDy=0;exitPerimeter=0;entryX=0.15;entryY=0;entryDx=0;entryDy=0;entryPerimeter=0;" parent="1" source="GAYBsDSeub3QhpSArbj6-79" target="GAYBsDSeub3QhpSArbj6-37" edge="1">
          <mxGeometry x="-1" y="3" relative="1" as="geometry">
            <mxPoint x="810" y="530" as="sourcePoint" />
            <mxPoint x="970" y="530" as="targetPoint" />
          </mxGeometry>
        </mxCell>
      </root>
    </mxGraphModel>
  </diagram>
</mxfile>
